<?xml version="1.0" encoding="UTF-8"?>
<svg width="700pt" height="700pt" version="1.1" viewBox="0 0 700 700" xmlns="http://www.w3.org/2000/svg" xmlns:xlink="http://www.w3.org/1999/xlink">
 <defs>
  <symbol id="f" overflow="visible">
   <path d="m39.078-2.3281c-2.0117 1.043-4.1094 1.8281-6.2969 2.3594s-4.4648 0.79688-6.8281 0.79688c-7.0859 0-12.699-1.9766-16.844-5.9375-4.1367-3.957-6.2031-9.3281-6.2031-16.109 0-6.7891 2.0664-12.164 6.2031-16.125 4.1445-3.9688 9.7578-5.9531 16.844-5.9531 2.3633 0 4.6406 0.26562 6.8281 0.79688s4.2852 1.3242 6.2969 2.375v8.7969c-2.0312-1.3828-4.0391-2.3984-6.0156-3.0469-1.9688-0.64453-4.0469-0.96875-6.2344-0.96875-3.9062 0-6.9844 1.2578-9.2344 3.7656-2.2422 2.5-3.3594 5.9531-3.3594 10.359 0 4.3867 1.1172 7.8359 3.3594 10.344 2.25 2.5 5.3281 3.75 9.2344 3.75 2.1875 0 4.2656-0.32031 6.2344-0.96875 1.9766-0.64453 3.9844-1.6602 6.0156-3.0469z"/>
  </symbol>
  <symbol id="e" overflow="visible">
   <path d="m16.031-40.953v9.0625h10.516v7.2812h-10.516v13.531c0 1.4805 0.28906 2.4805 0.875 3 0.59375 0.52344 1.7656 0.78125 3.5156 0.78125h5.2344v7.2969h-8.7344c-4.0312 0-6.8867-0.83594-8.5625-2.5156-1.6797-1.6875-2.5156-4.5391-2.5156-8.5625v-13.531h-5.0781v-7.2812h5.0781v-9.0625z"/>
  </symbol>
  <symbol id="d" overflow="visible">
   <path d="m26.594-27.234v-17.078h10.266v44.312h-10.266v-4.6094c-1.3984 1.875-2.9453 3.25-4.6406 4.125-1.6875 0.875-3.6406 1.3125-5.8594 1.3125-3.9297 0-7.1562-1.5625-9.6875-4.6875-2.5234-3.125-3.7812-7.1445-3.7812-12.062 0-4.9141 1.2578-8.9375 3.7812-12.062 2.5312-3.125 5.7578-4.6875 9.6875-4.6875 2.1953 0 4.1445 0.44531 5.8438 1.3281 1.707 0.88672 3.2578 2.2578 4.6562 4.1094zm-6.7188 20.656c2.1875 0 3.8516-0.79688 5-2.3906 1.1445-1.5938 1.7188-3.9102 1.7188-6.9531 0-3.0391-0.57422-5.3594-1.7188-6.9531-1.1484-1.5938-2.8125-2.3906-5-2.3906-2.168 0-3.8242 0.79688-4.9688 2.3906-1.1484 1.5938-1.7188 3.9141-1.7188 6.9531 0 3.043 0.57031 5.3594 1.7188 6.9531 1.1445 1.5938 2.8008 2.3906 4.9688 2.3906z"/>
  </symbol>
  <symbol id="c" overflow="visible">
   <path d="m21.875-6.5781c2.1758 0 3.8359-0.79688 4.9844-2.3906 1.1562-1.5938 1.7344-3.9102 1.7344-6.9531 0-3.0391-0.57812-5.3594-1.7344-6.9531-1.1484-1.5938-2.8086-2.3906-4.9844-2.3906-2.1875 0-3.8672 0.80469-5.0312 2.4062-1.168 1.6055-1.75 3.918-1.75 6.9375 0 3.0234 0.58203 5.3359 1.75 6.9375 1.1641 1.6055 2.8438 2.4062 5.0312 2.4062zm-6.7812-20.656c1.4062-1.8516 2.9609-3.2227 4.6719-4.1094 1.707-0.88281 3.6719-1.3281 5.8906-1.3281 3.9375 0 7.1641 1.5625 9.6875 4.6875 2.5195 3.125 3.7812 7.1484 3.7812 12.062 0 4.918-1.2617 8.9375-3.7812 12.062-2.5234 3.125-5.75 4.6875-9.6875 4.6875-2.2188 0-4.1836-0.44531-5.8906-1.3281-1.7109-0.88281-3.2656-2.2539-4.6719-4.1094v4.6094h-10.188v-44.312h10.188z"/>
  </symbol>
  <symbol id="b" overflow="visible">
   <path d="m5.3594-42.516h13.953l9.6875 22.75 9.7344-22.75h13.922v42.516h-10.359v-31.094l-9.7969 22.922h-6.9531l-9.7969-22.922v31.094h-10.391z"/>
  </symbol>
  <symbol id="a" overflow="visible">
   <path d="m31.156-7.75h-17.141l-2.7031 7.75h-11.031l15.75-42.516h13.078l15.75 42.516h-11.031zm-14.406-7.8906h11.641l-5.8125-16.906z"/>
  </symbol>
 </defs>
 <g>
  <path d="m327.05 76.676c-4.7266 0.66016-116.59 17.215-181.54 104.91-38.719 52.273-52.164 118.4-39.969 196.55 0.12109 2.5469 0.40625 5.0781 0.84766 7.5898 0.12109 0.70312 0.31641 1.3945 0.58203 2.0625 5.7812 38.965 31.641 72.016 68.07 87.004 36.434 14.988 78.062 9.7031 109.59-13.91 31.527-23.617 48.309-62.082 44.172-101.26-4.1406-39.176-28.586-73.285-64.352-89.793-8.125-16.453-26.051-60.383-10.48-101.86 11.16-29.738 37.707-52.91 78.91-68.871h-0.003906c5.5273-2.1406 8.5703-8.082 7.082-13.816-1.4922-5.7344-7.0469-9.4414-12.914-8.6172zm-94.922 83.102c-20.047 53.41 5.0234 108.33 13.359 124.21h-0.003907c0.69922 1.2305 1.5703 2.3555 2.5859 3.3359 1.0469 1.0156 2.2734 1.8242 3.6172 2.3828 19.254 7.9961 35.07 22.527 44.668 41.035 9.5938 18.508 12.355 39.809 7.793 60.152-4.5586 20.344-16.148 38.426-32.727 51.066-16.578 12.641-37.082 19.031-57.91 18.043-20.824-0.98828-40.633-9.2852-55.941-23.441-15.309-14.152-25.133-33.25-27.75-53.934-0.12109-0.9375-0.36328-1.8594-0.72656-2.7344-0.14453-0.91797-0.22266-1.8477-0.23438-2.7773 0-0.61328-0.046875-1.2227-0.14453-1.8242-11.387-72.004 0.53516-132.46 35.426-179.66h0.003907c23.328-30.348 53.695-54.562 88.48-70.547-8.793 10.289-15.727 22.027-20.496 34.691z"/>
  <path d="m616.79 85.289c-1.5-5.7266-7.0469-9.4297-12.91-8.6133-4.7266 0.66016-116.59 17.215-181.54 104.91-38.715 52.273-52.16 118.4-39.961 196.55 0.125 2.5352 0.40234 5.0625 0.83594 7.5664 0.12109 0.71094 0.31641 1.4062 0.58594 2.0742 5.7812 38.969 31.637 72.02 68.066 87.012 36.43 14.992 78.062 9.7109 109.59-13.906 31.531-23.613 48.312-62.078 44.176-101.25-4.1367-39.176-28.582-73.289-64.352-89.797-8.125-16.453-26.051-60.383-10.48-101.86 11.16-29.738 37.707-52.91 78.91-68.871h-0.003907c5.5273-2.1406 8.5703-8.0859 7.0781-13.82zm-107.83 74.488c-20.047 53.41 5.0234 108.33 13.359 124.21 0.69531 1.2305 1.5664 2.3555 2.5859 3.3359 1.043 1.0156 2.2734 1.8242 3.6172 2.3828 19.254 7.9961 35.066 22.527 44.664 41.035 9.5938 18.512 12.355 39.809 7.7969 60.152-4.5625 20.344-16.148 38.426-32.73 51.066-16.578 12.641-37.082 19.031-57.906 18.043-20.824-0.98438-40.637-9.2852-55.941-23.438-15.309-14.156-25.137-33.254-27.75-53.938-0.12109-0.93359-0.36328-1.8516-0.72656-2.7227-0.13672-0.92188-0.21484-1.8555-0.23047-2.7891 0-0.61328-0.046875-1.2227-0.14453-1.8242-11.387-72.004 0.53125-132.46 35.422-179.66 23.328-30.348 53.699-54.562 88.48-70.547-8.793 10.289-15.727 22.027-20.496 34.691z"/>
  <use x="70" y="735" xlink:href="#f"/>
  <use x="220.503906" y="735" xlink:href="#e"/>
  <use x="287.953125" y="735" xlink:href="#d"/>
  <use x="350.015625" y="735" xlink:href="#c"/>
  <use x="450.105469" y="735" xlink:href="#b"/>
  <use x="649.144531" y="735" xlink:href="#a"/>
 </g>
</svg>
